<svg width="24" height="24" viewBox="0 0 24 24" fill="none" xmlns="http://www.w3.org/2000/svg">
<circle cx="11" cy="10" r="1" fill="#161616"/>
<circle cx="14" cy="10" r="1" fill="#161616"/>
<path fill-rule="evenodd" clip-rule="evenodd" d="M2 5C2 4.44772 2.44772 4 3 4H4.66542C5.632 4 6.46026 4.69125 6.63316 5.64223L6.69821 6H19.5C20.0523 6 20.5 6.44772 20.5 7V11C20.5 11.2652 20.3946 11.5196 20.2071 11.7071L18.2071 13.7071C17.8166 14.0976 17.1834 14.0976 16.7929 13.7071C16.4024 13.3166 16.4024 12.6834 16.7929 12.2929L18.5 10.5858V8H7.06185L8.33458 15L18 15C18.5523 15 19 15.4477 19 16C19 16.5523 18.5523 17 18 17H8.33458C7.368 17 6.53974 16.3087 6.36684 15.3578L4.66542 6H3C2.44772 6 2 5.55228 2 5ZM8.5 21C9.32843 21 10 20.3284 10 19.5C10 18.6716 9.32843 18 8.5 18C7.67157 18 7 18.6716 7 19.5C7 20.3284 7.67157 21 8.5 21ZM18 19.5C18 20.3284 17.3284 21 16.5 21C15.6716 21 15 20.3284 15 19.5C15 18.6716 15.6716 18 16.5 18C17.3284 18 18 18.6716 18 19.5ZM10.9347 13.3416C11.9201 12.849 13.0799 12.849 14.0652 13.3416L14.2764 13.4472C14.5234 13.5707 14.8237 13.4706 14.9472 13.2236C15.0707 12.9766 14.9706 12.6763 14.7236 12.5528L14.5124 12.4472C13.2456 11.8138 11.7544 11.8138 10.4875 12.4472L10.2764 12.5528C10.0294 12.6763 9.92928 12.9766 10.0528 13.2236C10.1763 13.4706 10.4766 13.5707 10.7236 13.4472L10.9347 13.3416Z" fill="black"/>
</svg>